<?xml version="1.0" encoding="UTF-8"?>
<!DOCTYPE svg PUBLIC "-//W3C//DTD SVG 1.1//EN" "http://www.w3.org/Graphics/SVG/1.1/DTD/svg11.dtd">
<!-- Creator: CorelDRAW -->
<svg xmlns="http://www.w3.org/2000/svg" xml:space="preserve" width="420mm" height="297mm" version="1.1" style="shape-rendering:geometricPrecision; text-rendering:geometricPrecision; image-rendering:optimizeQuality; fill-rule:evenodd; clip-rule:evenodd"
viewBox="0 0 42000 29700"
 xmlns:xlink="http://www.w3.org/1999/xlink"
 xmlns:xodm="http://www.corel.com/coreldraw/odm/2003">
 <defs>
  <style type="text/css">
   <![CDATA[
    .str0 {stroke:#373435;stroke-width:20;stroke-miterlimit:22.9256}
    .fil0 {fill:#010702}
    .fil5 {fill:#78848A}
    .fil4 {fill:#C7A63D}
    .fil1 {fill:#E5E8ED}
    .fil3 {fill:#E6E8ED}
    .fil2 {fill:#A28912}
   ]]>
  </style>
 </defs>
 <g id="Capa_x0020_1">
  <metadata id="CorelCorpID_0Corel-Layer"/>
  <path class="fil0 str0" d="M7312.42 3507.32l27896.52 0c3583.82,0.01 6490.18,2309.09 6490.18,5156.41l0.01 4807.53c-0.01,2847.3 -2906.37,5156.38 -6490.2,5156.38l-27896.51 0.02c-3583.81,-0.02 -6490.17,-2309.1 -6490.17,-5156.42l-0.02 -4807.52c0.02,-2847.31 2906.38,-5156.39 6490.21,-5156.39z"/>
  <path class="fil1" d="M33915.21 6065.36c-0.41,24.34 -111.6,142.18 -142.27,179.62l-239.61 275.2c-78.11,75.5 -20.43,18.08 -77.21,89.33 -32.94,41.32 -135.55,143.69 -159.6,185.68 -29.51,51.51 -72.97,84.37 -144,195.68l-124.11 131.3c-50.14,58.08 -18.88,49.29 -66.08,91.35l-126.33 144.36c-23.66,45.36 -20.11,25.11 -72.42,93.72 -22.91,30.06 -15.42,7.65 -47.23,41.25 -46.43,49.01 -7.95,23.32 -80.91,85.84 -54.85,47 -303.53,370.09 -363.47,410.85 -38.75,26.36 -120.01,139.83 -150.72,182.71 -42.28,59.05 -198.82,218.37 -238.37,275.9l-191.9 234.33c-19.49,23.22 -26.05,24.39 -43.47,45.13l-234.24 280.39c-9.37,43.32 -12.13,36.29 -42.63,65.96l-149.29 175.05c-57.07,72.44 -159.08,168.76 -183.82,235.44l-62.67 2.86c-12.24,-97.95 -3.21,-2955.37 -3.05,-3040.89l0.16 -563.65c0.25,-84.19 14.69,-123.14 -31.6,-169.72 -94.51,-95.1 -72.25,-67.56 -298.38,-67.91 -262.06,-0.4 -3003.63,-9.01 -3047.16,3.35 -25.52,7.25 -86.88,66.76 -97.55,85.74 -21.69,38.53 -9.74,136.92 -9.61,188.09 1.29,510.84 -0.86,1021.9 -0.7,1532.75l-1.39 8959.85c16.09,184.43 317.45,128.66 446.9,128.28l1147.1 0.23c510.15,0.6 1022.99,-6.39 1532.75,0.21 62.4,0.81 125.62,0.15 188.17,0.49 89.12,0.49 87.71,-15.89 130.95,-58.11 53.19,-51.94 45.02,-39.7 44.74,-140.96l-2.37 -2443.12c13.07,-49.38 -14.21,-17.26 27.74,-38.9 27.14,-48.26 309.09,-325.77 380.87,-396.84 67.24,-66.57 123.49,-140.96 188.59,-206.98l423.82 -416.08c1.39,-1.36 3.34,-3.56 4.72,-4.96l24.1 -25.82c120,-134.97 297.8,-352.19 427.91,-454.4 37.74,-29.64 59.12,-83.2 108.83,-94.73 2.38,2.05 5.4,2.39 6.4,6.94l69.52 121.8c39.07,43.77 52.7,83.98 71.76,140.49 3.57,10.59 27.3,54.84 32.8,63.19l238.52 476.11c11.02,28.89 0.85,10.57 14.07,33.58l36.62 61.54c1.14,1.86 2.82,4.18 3.94,6.09l13.82 27.42c23.8,50.1 59.42,73.68 80.13,124.9l235.37 466.64c23.49,38.69 14.89,50.87 29.83,80.63l71.72 125.23c12.24,25.84 19.13,40.7 34.54,63l317.04 612.98c79.83,179.11 194.66,356.02 272.04,539.31l207.29 395.19c28.57,46.3 41.3,87.26 65.7,143.03 51.12,116.87 311,568.7 346.26,672.65 13.01,38.36 49.82,100.02 70.61,135.26 170.63,14.59 375.98,0.94 550.86,2.84 935.86,10.18 1872.41,-1.61 2808.39,-0.21l702.35 0.26c66.83,0.31 73.4,7.89 106.74,-31.16 8.13,-9.53 22.97,-28.39 28.92,-38.2l25.21 -44.59c27.39,-43.06 19.98,-55.62 18.78,-122.92 -37.68,-12.47 -29.14,-15.96 -49.56,-41.63l-17.04 -23.41c-44.7,-62.3 -47.43,-41.31 -63.88,-127.93l-152.38 -222.05c-0.9,-2.37 -1.39,-5.22 -2.26,-7.54 -10.28,-27.45 -2.38,-10.95 -11.58,-25.52l-43.3 -55.46c-80.96,-112.91 -84.65,-126.85 -149.34,-247.28 -3.98,-7.4 -16.04,-31.61 -16.15,-31.77 -19.91,-27.13 -13.09,3.78 -41.23,-37.53 -24.68,-36.22 -14.44,-43.52 -38.51,-81.19l-111.21 -184.14c-12.08,-14.08 -19.32,-12.72 -38.01,-41.47 -76.02,-117.01 -138.71,-247.59 -224.47,-358.52l-245.53 -407.41c-1.15,-1.79 -2.67,-4.27 -3.8,-6.09 -24.08,-38.8 -35.92,-64.07 -64.14,-103.37l-362.95 -606.9c-38.32,-57.06 -75.7,-102.67 -103.33,-164.32 -7.23,-16.11 -20.06,-35.04 -33.15,-55.52l-127.25 -198.43c-87.47,-136.01 -156.59,-278.51 -255.79,-406.42 -73.78,-95.14 -121.36,-207.19 -190.57,-303.25l-47.23 -70.43c-8.75,-14.74 -12.18,-19.11 -18.31,-30.45 -25.65,-47.39 -43.65,-93.33 -80.53,-130.65 -46.51,-47.06 21.97,36.31 -17.23,-19.95 -8.42,-12.09 -5.77,-10.31 -15.16,-24.52 -31.53,-47.72 -46.48,-143.58 -118.66,-201.36 -42.26,-33.84 -85.62,-169.2 -139.27,-253.6 -22.74,-35.75 -35.75,-64.88 -59.35,-99.15 -23.2,-33.7 -44.55,-60.44 -65.28,-102.14 -15.4,-30.96 -13.73,-25.12 -29.82,-49.62l-688.92 -1130.54c-17.09,-29.04 -19.11,-27.94 -34.23,-54.35 -20.76,-36.23 -39.28,-73.06 -61.77,-107.47l-125 -201.02c-21.8,-34.07 -41.37,-70.1 -63.25,-104.96 -157.78,-251.6 -160.43,-192.25 50.26,-397.88 58.61,-57.19 110.56,-123.35 170.33,-185.59 98.07,-102.12 546.09,-571.75 628.86,-619.49 31.48,-18.17 44.61,-65.41 75.55,-99.77 105.02,-116.6 126.28,-113.27 170.55,-165.31l93.61 -105.11c26.92,-27.21 48.56,-77.33 82.5,-86.49 16.59,-45.45 146.11,-156.12 200.95,-212.96l199.63 -215.69c33.9,-38.95 73.39,-55.15 108.23,-98.74 9.92,-12.41 11,-15.44 23.64,-27.57 2.03,-1.95 25.09,-20.83 27.11,-22.47 38.99,-31.56 44.74,-45.33 72.67,-83.02l112.21 -116.62c5.35,-4.99 5.79,-6.68 16.21,-14.87 22.24,-17.49 41.04,-26.35 75.93,-31.56 0.1,-2.52 1.53,-22.97 1.76,-23.84 4.34,-15.52 7.29,-19.47 9.16,-22.28l188.28 -218.06c24.82,-26.45 12.21,-19.66 49.33,-30.71 32.07,-45.29 100.24,-119.92 142.16,-155.61 153.89,-131.03 104.04,-107.01 207.25,-207.77l155.82 -159.36c5.05,-6.22 14.6,-16.97 18.71,-21.49 27.82,-30.61 49.06,-51.45 76.19,-81.91 25.89,-29.07 45.84,-47.35 72.59,-75.86 28.93,-30.83 53.59,-49.63 79.15,-78.87l227.33 -238.17c38.83,-34.45 134.4,-161.57 226.98,-240.31 11.69,-22.68 -0.35,-4.19 16.2,-28.94 30.33,-45.37 116.01,-102.66 119.26,-137.9 -4.43,-36.03 -58.81,-146.37 -77.64,-171.39 -94.85,-10.37 -1690.85,-8.19 -1957.97,1.62 -211.04,7.75 -440.23,2.61 -652.65,1.12 -437.57,-3.07 -877.54,-1.59 -1315.21,0.22 -627.04,2.6 -427.59,-74.6 -720.65,258.62 -28.62,32.53 -134.18,167 -169.27,171.52z"/>
  <path class="fil1" d="M6836.3 5582.56c-18.76,1.11 -70.9,9.21 -88.62,14.54l-694.27 253.6c-38.86,14.95 -32.53,6.55 -65.01,30.98 -47.65,35.85 -100.07,56.69 -154.6,82.58 -17.69,8.38 -19.24,9.47 -38.5,21.01l-408.99 233.64c-49.11,30.55 -85.13,65.96 -137.55,98.71 -50.19,31.35 -89.6,57.83 -137.08,91.47 -51.49,36.51 -82.2,76.71 -125.86,110.5 -2.27,1.76 -9,6.92 -11.31,8.69l-177.61 149.38c-23.52,21.15 -41.85,32.22 -65.55,53.1l-235.3 239.63c-156.05,157.57 -377.97,487.63 -433.92,545.74l-69.16 106.12c-38.58,68.58 -4.02,-17.96 -66.49,111.69 -15.18,31.47 -48.29,60.75 -69.6,106.98l-78.75 160.52c-16.07,28.97 -28.5,47.8 -41.68,75.21l-200.88 502.96c-7.79,31.13 -17.54,46.88 -29.19,90.58 -3.63,13.61 -80.18,168.12 -91.26,249.89 -4.45,32.91 1.1,24.82 -10.37,52.94 -45.51,111.66 -43.13,222.7 -79.95,337.47 -47.98,149.58 -17.48,37.34 -42.09,191.93l-56.11 288.31c-3.75,43.52 1.69,73.41 -8.84,112.14 -20.2,74.22 -12.17,128.39 -19.6,211.52 -16.63,185.88 -29.16,205.45 -36.59,425.66 -5.84,173.14 -30.15,548.42 -12.62,685.24 9.46,73.84 -2.31,149.91 3.45,224.27 4.93,63.69 14.25,152.3 17.67,218.08 3.95,75.61 -3.54,159.75 5.88,234.5l72.84 508.18c8.35,36.62 8.09,64.39 15.28,103.82 24.34,133.64 52.85,268.95 83.69,390.79 14.78,58.33 29.77,122.21 46.1,180.2l81.54 263.74c7.91,56.7 40.32,127.08 59.65,178.92 9.42,25.3 18.69,65.65 29.73,90.43 17.08,38.37 17.81,18.57 34.55,71.45l181.76 413.85 168.23 296.39c141.24,243 308.07,474.28 487.39,689.66 18.97,22.76 37.95,37.96 57.22,61.03l160.59 188.41c39.97,13.07 59.8,45.89 89.18,75.97 1.44,1.48 3.5,3.57 4.95,5.05 1.45,1.49 3.51,3.56 4.96,5.05l124.94 112.72c25.88,22.45 -2.7,-1.8 24.61,24.38 27.05,25.93 44.11,27.16 61.97,54.5l7.43 12.59c8.46,12.83 12.1,17.51 22.23,28.57 29.03,31.63 79.75,51.05 106.79,80.94 9.22,10.18 5.05,11.41 22.54,27.87 10.01,9.41 17.11,12.17 28.89,21.17l94.26 63.54c26.72,24.75 52.31,57.4 115.76,101.64 209.2,145.84 479.68,320.96 721.85,405.37l273.84 102.64c72.25,23.45 83.15,29.96 174.61,31.49 34.01,12.12 -14.96,14.85 58.02,35.54l160.96 46.71c34.16,8.6 71.64,5.92 107.35,6.66 9.4,1.72 34.81,36.59 115.77,55.69 57.53,13.59 92.82,10.41 148.26,28.78l147.45 31.03c49.7,13.18 102.41,12.47 159.49,20.83 32.52,4.75 30.39,12.17 71.36,16.85 28.16,3.23 57.28,0.53 84.96,5.29l320.91 36.13c58.46,2.99 78.47,17.48 158.55,18.88l681.99 31.34c118.69,-0.28 237.4,0.43 356.08,0.74 108.17,0.28 238.42,-20.12 345.64,-20.28 174.79,-0.28 491.97,-16.53 665.67,-52.91 103.25,-21.62 203.95,-27.57 311.56,-47.13 29.41,-5.34 28.36,-11.46 66.79,-20.53l351.82 -98.77c88.06,-11.62 124.01,-45.07 202.68,-65.05 136.54,-34.68 211.28,-86.31 315.51,-129.76l176.69 -88.66c2.43,-0.89 5.17,-1.61 7.63,-2.54 2.5,-0.96 5.17,-1.81 7.66,-2.83 2.46,-1.01 5.05,-2.05 7.47,-3.14 2.37,-1.06 4.87,-2.29 7.17,-3.42l120.34 -67.86c49.41,-28.93 107.45,-44.53 153.94,-74.56 81.14,-52.42 166.08,-101.03 243.87,-161.95l177.22 -128.64c100.02,-66.88 245.99,-202.93 330.97,-292.95 1.99,-2.09 7.65,-8.33 9.59,-10.47 1.4,-1.55 3.25,-3.85 4.64,-5.39 1.38,-1.53 3.24,-3.81 4.61,-5.32l114.39 -112.9c60.46,-65.24 115.65,-119.84 171.44,-184.31 55.43,-64.07 91.28,-143.7 150.21,-205.57 65.46,-68.72 95.68,-146.8 153.23,-223.04l8.52 -11.24c90.13,-116.27 155.23,-249.51 222.41,-381.94l28.29 -50.88c22.67,-41.6 38.61,-74.43 60.16,-117.37 52.5,-104.63 8.11,-50.39 88.22,-177.02l245.71 -651.55c5.54,-32.74 17.69,-46.81 23.65,-66.13l99.06 -343.18c5.74,-36.3 1.42,-48.36 10.63,-81.06 8.84,-31.4 47.91,-108.64 21.26,-137.13 -21.24,-27.3 -45.87,-24.85 -80.75,-35.78 -16.48,-5.16 -33.76,-9.05 -46.16,-13.14 -16.81,-5.56 -8.93,-2.9 -22.12,-8.68l-326.73 -97.54c-107.74,-35.41 -185.6,-45.55 -306.01,-80.89l-773.16 -255.68c-49.63,15.36 -117.51,-25 -228.47,-49.26 -66.31,-14.51 1.98,-10.43 -66.86,-29.39 -32.6,-8.97 -42.36,-6.79 -72.17,-18.38 -70.44,-27.39 -269.75,-65.76 -380.42,-105.57 -228.52,-82.2 -226.01,-69.47 -455.67,-129.61 -66.78,-17.48 -208.15,-78.36 -286.31,-97.98 -54.33,-13.64 -148.62,50.98 -195.33,82.28 -27.27,18.28 -29.57,30.9 -52.12,44.91 -26.64,16.56 -49.01,-7.6 -73.12,117.91 -14.1,73.44 -18.95,94.32 -36.53,161.87l-99.44 285.84c-7.18,53.95 -18.78,70.42 -34.51,111.12 -16.13,41.68 -16.02,64.36 -34.98,104.82l-136.11 289.49c-59.19,93.57 -63.98,134.89 -71.95,147.22l-13.26 14.76c-7.44,7.89 -11.28,11.22 -19.32,19.4 -111.08,113.07 -115.33,179.76 -270.41,302.93 -28.75,22.82 -44.76,47.32 -76.61,71.2l-179.91 107.68c-39.15,16.81 -54.65,28.27 -91.45,46.91 -69.65,35.28 -169.79,44.15 -220.74,66.44 -28.53,12.49 -76.22,30.85 -108.5,38.92 -59.22,14.79 -22.71,-6.74 -110.73,26.79 -40.1,15.27 -90.47,5.98 -137.17,10.46 -264.52,25.31 -528.54,20.33 -788.36,-33.82 -44.91,-9.35 -58.05,-22.89 -102.67,-33.55 -81.1,-19.39 -443.64,-174.04 -475.99,-252.33 -65.74,-8.65 -191.28,-160.31 -246.33,-221.58l-47.45 -61.27c-19.01,-28.89 -20.23,-25.21 -40.77,-48.28 -79.21,-88.89 -183.61,-355.07 -211.44,-461.91 -61,-234.2 -88.21,-218.47 -133.27,-538.07 -6.09,-43.11 -8.97,-36.09 -14.99,-62.66 -5.15,-22.74 -6.89,-56.88 -9.64,-79.68 -24.08,-200.27 -38.01,-186.41 -47.03,-459.51 -3.68,-111.62 -10.86,-221.63 -10.51,-326.65 0.35,-108.42 -13.84,-229.32 -7.6,-325.98 13.44,-208.6 6.97,-436 30.81,-641.41 5.87,-50.61 6.96,-101.95 9.59,-160.6 1.64,-36.7 44.45,-196.35 49.24,-286.26 3.68,-69.27 92.9,-393.64 121.48,-460.97 28.48,-67.09 -4.65,-17.41 49.3,-118.19l143.61 -282.54 134.46 -171.39c123.35,-144.28 302.6,-324.79 457.39,-412.65 180.75,-102.61 166.47,-95.07 351.54,-153.42 131.7,-41.52 162.9,-26.59 205.32,-42.18 118.79,-43.62 251.79,-45.29 384.93,-43.86 373.08,4.02 631.52,40.37 953.68,228.45l197.1 137.97c30.4,27.85 57.11,48.01 86.9,80.84 33.01,36.41 48.55,42.48 82.47,85.72 26.13,33.33 48.7,57.74 79.92,88.56 54.85,54.15 160.85,225.81 193.9,308.22 4.78,11.91 5.6,16.42 11.11,28.93 15.11,34.36 30.65,52.49 31.62,102.36 15.84,9.64 5.18,0.83 22.38,13.29 23.41,16.99 21.15,21.57 28.33,46.92l77.26 221.14c0.85,1.83 2.13,4.38 2.87,6.32l44.54 155.28c72.72,-0.66 85.68,-18.31 144.93,-32.74l43.83 -16.51c40.06,-15.99 62.73,-2.79 104.43,-14.99 51.82,-15.17 14.19,-16.46 90.58,-23.6 88.76,-8.29 27.02,-15.89 77.3,-34.13 28.05,-10.18 76.75,-4.57 110,-5.41 112.55,-2.85 197.91,-36.03 299.36,-53.93 73.27,-12.91 121.78,-18.77 193.05,-43.2l180.35 -44.39c99.28,-10.34 200.2,-34.53 298.88,-59.76 30.19,-7.72 62.7,-9.22 91.95,-17.08 41.11,-11.05 37.32,-17.85 89,-27.64 67.99,-12.87 142.5,-17.25 208.86,-33.04 38.16,-9.07 29.69,-16.67 82.15,-24.41 41.87,-6.18 65.19,-15.32 100.3,-20.26l396.62 -71.05c40.09,-8.22 54.28,-16.9 93.44,-25.06 59.93,-12.49 124.82,-15.16 184.31,-40.6 153.55,-65.7 288.87,-6.5 341.67,-121.11 7.69,-16.69 9.58,-26.83 17.14,-43.17l61.84 -116.98c44.87,-78.5 17.78,-105.79 -39.63,-261.59l-31.86 -87.27c-35.83,-98.01 -85.45,-249.68 -129.77,-336.17 -67.91,-132.47 -113.2,-268.03 -186.1,-397.86 -34.26,-61.02 -53.44,-87.79 -73.41,-157.26l-67.49 -107.29c-14.48,-18.51 -10.8,-15.22 -22.5,-38.27l-216.88 -327.88c-17.34,-34.82 -41.15,-50 -66.15,-80.07l-110.26 -145.63c-1.42,-1.38 -3.65,-3.27 -5.11,-4.63l-67.04 -73.19c-69.83,-91.87 -81.53,-79.88 -147.66,-147.98 -74.22,-76.45 -148.31,-166.85 -230.17,-233.8l-187.52 -158.21c-5.09,-3.76 -12.46,-9.1 -17.36,-12.99l-50.25 -37.42c-41.66,-25.09 -31.97,-13.23 -61.38,-50.2l-171.23 -119.98c-8.57,-3.46 -11.23,-3.23 -22.74,-7.97 -9.98,-4.11 -13.94,-6.14 -21.31,-10.07 -98.53,-52.52 -187.52,-126.02 -293.84,-169.94l-69.25 -39.22c-30.88,-14.86 -55.39,-15.65 -89.74,-31.22 -189.08,-85.65 -381.99,-167.26 -584.55,-224.22 -41.63,-11.7 -56.5,-24.12 -85.1,-31.37 -194.06,-49.2 -582.76,-149.91 -767.23,-160.53 -171.55,-9.86 -134.21,-20.76 -209.93,-28.59 -90.87,-9.4 -359.53,-21.76 -427.43,-41.56 -133.67,-39 -720.45,-22.31 -905.4,-19.25 -155.49,2.58 -284.2,20.38 -435.03,26.56l-805.27 124.14c-67.79,14.07 -128.42,23.47 -200.38,38.46 -55.6,11.59 -128.71,42.31 -194.53,48.31z"/>
  <path class="fil2" d="M24633.68 12083.04c6.48,-6.19 14.17,-12.05 23.46,-21.01 13.53,-13.04 16.13,-16.63 30.06,-30.27l59.35 -59.64c29.78,-31.22 41.63,-24.81 47.33,-75.97l-0.01 -1603.02c0.02,-161.44 -1.24,-323.22 -0.04,-484.59 0.9,-120.48 -7.95,-105.14 -140.1,-231.91 -28.82,-27.64 -31.86,-41.84 -83.2,-46.05 -124.55,-10.17 -803.29,-0.21 -989.08,-0.19l-2936.94 -6.4c-130.53,-0.05 -929.02,20.02 -979.03,-12.07 -20.98,-23.29 -11.05,-990.24 -10.93,-1187.29 0.07,-122.36 45.9,-89.94 337.3,-89.19l4796.02 0.2c55.13,-0.08 114.33,2.11 168.83,0.4 50.34,-1.58 87.82,-20.39 104.36,-63.99 -0.42,-46.02 -7.84,-21.18 64.91,-92.06l19.08 -19.25c38.69,-44.51 36.81,-66.58 37.15,-140.81l-2.93 -2154.51c-11.63,-66.83 -131.25,-131.22 -154.07,-189.25 -136.19,-18.33 -349.86,-5.77 -494.43,-5.91l-3401.71 0.09c-1298.44,3.05 -2598.05,-7.6 -3896.15,-0.44 -326,1.8 -652.86,0.68 -978.99,0 -136.52,-0.29 -106.02,-8.77 -176.89,66.71 -41.58,44.28 -88.55,64.29 -100.53,139.53 -17.45,109.54 -3.72,358.04 -3.72,482.39 -0.03,512.11 -13.15,5803.98 10.15,5828.77 64.69,30.12 937.5,11.55 1091.76,11.14 362.49,-0.97 725.64,2.68 1088.09,0.31 53.34,-0.35 85.78,10.23 127.35,7.2 120.75,-8.78 351.19,1.8 383.6,-2.37 95.89,-12.32 651.34,-7.54 814.21,-5.7l4053.97 -6.9c354.25,0.07 742.36,15.43 1091.77,-7.95z"/>
  <path class="fil3" d="M20090.74 13868.34l-4147.1 1.24c-1.95,817.44 6.58,1665.69 -0.81,2475.48 -0.59,65.4 -14.64,108.15 74.31,168.95 68.21,46.63 65.04,52.69 117.38,126.34 306.02,18.35 1811.09,2.7 2097.15,2.69l6397.99 1c82.72,-0.07 494.29,11.04 537.54,-8.83 18.7,-8.58 112.03,-104.99 137.92,-129.3 73.32,-68.91 48.05,-138.2 48.12,-289.45l-0.75 -1948.07c-0.07,-65.9 14.28,-197.51 -6.81,-247.22 -23.61,-48.75 3.34,13.44 -60.02,-61.94l-66.2 -63.48c-71.39,-67.35 -86.79,-50.26 -214.03,-50.14l-4599.84 0.35c-69.14,9.64 -7.92,22.35 -126.76,22.83 -62.62,0.25 -125.41,-0.33 -188.09,-0.45z"/>
  <path class="fil4" d="M24633.68 12083.04c-349.41,23.38 -737.52,8.02 -1091.77,7.95l-4053.97 6.9c-162.87,-1.84 -718.32,-6.62 -814.21,5.7 -32.41,4.17 -262.85,-6.41 -383.6,2.37 -41.57,3.03 -74.01,-7.55 -127.35,-7.2 -362.45,2.37 -725.6,-1.28 -1088.09,-0.31 -154.26,0.41 -1027.07,18.98 -1091.76,-11.14 -23.3,-24.79 -10.18,-5316.66 -10.15,-5828.77 0,-124.35 -13.73,-372.85 3.72,-482.39 11.98,-75.24 58.95,-95.25 100.53,-139.53 70.87,-75.48 40.37,-67 176.89,-66.71 326.13,0.68 652.99,1.8 978.99,0 1298.1,-7.16 2597.71,3.49 3896.15,0.44l3401.71 -0.09c144.57,0.14 358.24,-12.42 494.43,5.91 22.82,58.03 142.44,122.42 154.07,189.25l2.93 2154.51c-0.34,74.23 1.54,96.3 -37.15,140.81l-19.08 19.25c-72.75,70.88 -65.33,46.04 -64.91,92.06 48.97,-21.89 44.91,-30.96 95.16,-81.74 41.23,-41.67 58.79,-42.12 59.62,-120.47 7.18,-679.3 -1.1,-1392.52 -0.66,-2077.19 0.04,-51.44 11.83,-127.64 -9.83,-170.16 -23.61,-46.34 -64.85,-37.73 -83.43,-104.91 -19.54,-5.78 -41.45,-27.53 -50.71,-48.67 -37.95,-12.77 -50.05,-30.27 -95.23,-33.77l-860.53 -0.04c-329.58,1.12 -659.34,-1.88 -988.87,-0.28 -655.56,3.18 -1312.23,1.32 -1967.86,0.42 -1636.04,-2.24 -3292.08,10.7 -4924.67,-0.63 -127.61,-0.89 -108.85,7.07 -174.87,74.27 -180.38,183.58 -127.99,97.33 -126.44,619.99l-1.36 5419.01c0.24,128.52 -8.23,428.59 7.65,472.3 1,2.77 3.07,5.94 3.98,8.14 19.98,47.7 1958.82,18.03 2179.88,17.88l1492.39 -2c42.63,-5.51 59.02,-26.52 109.01,-28.11 180.75,-5.73 372.1,2.15 554.34,1.39 728.07,-3.05 1457.22,0.06 2185.4,0.63l2117.17 -0.22c56.22,-6.07 40.54,1.1 52.48,-34.85z"/>
  <path class="fil5" d="M31001.56 13863.04c-41.95,21.64 -14.67,-10.48 -27.74,38.9l2.37 2443.12c0.28,101.26 8.45,89.02 -44.74,140.96 -43.24,42.22 -41.83,58.6 -130.95,58.11 -62.55,-0.34 -125.77,0.32 -188.17,-0.49 -509.76,-6.6 -1022.6,0.39 -1532.75,-0.21l-1147.1 -0.23c-129.45,0.38 -430.81,56.15 -446.9,-128.28l1.39 -8959.85c-0.16,-510.85 1.99,-1021.91 0.7,-1532.75 -0.13,-51.17 -12.08,-149.56 9.61,-188.09 10.67,-18.98 72.03,-78.49 97.55,-85.74 43.53,-12.36 2785.1,-3.75 3047.16,-3.35 226.13,0.35 203.87,-27.19 298.38,67.91 46.29,46.58 31.85,85.53 31.6,169.72l-0.16 563.65c-0.16,85.52 -9.19,2942.94 3.05,3040.89l62.67 -2.86c24.74,-66.68 126.75,-163 183.82,-235.44l149.29 -175.05c30.5,-29.67 33.26,-22.64 42.63,-65.96 -39.71,14.68 -13.36,1.49 -44.6,26.28 -25.68,20.38 -33.95,43.2 -66.46,79.77 -41.16,46.3 -251.26,317.57 -296.28,329.99 -12.81,-247.46 0,-521.85 -1.12,-772.67l-0.99 -2313.94c0.6,-127.94 2.54,-257.97 1.08,-385.66 -2.78,-243.09 29.96,-204.16 -75.96,-306.02 -55.35,-53.22 -51.85,-48.24 -148.4,-47.84l-2877.72 0.48c-90.9,0.23 -291.24,-22.18 -355.02,28.66 -114.47,91.27 -94.16,102.03 -94.85,285.16 -9.61,2558.92 0.29,5123.25 -4.9,7683.53l1.05 2313.94c0.85,128.05 -2.81,257.33 -2.58,385.67 0.12,65.23 -10.13,123.26 25.26,163.89 20.96,24.07 73.53,78.48 100.56,87.96 47.59,16.7 661.52,6.87 765.59,6.04l567.57 4.38c59.36,-7.67 122.91,-3.8 183.96,-3.49 509.5,2.44 1024.13,-9.8 1532.75,-0.53 64.87,1.18 133.68,2.92 198.33,0.89 106.02,-3.35 182.87,-87.43 183.38,-209.43 3.49,-828.3 -10.88,-1674.58 -2.36,-2502.02z"/>
 </g>
</svg>
